<svg width="405" height="445" viewBox="0 0 405 445" fill="none" xmlns="http://www.w3.org/2000/svg">
<g opacity="0.5">
<path d="M0 112.485C103.454 88.1952 149.577 65.0142 202.5 0V444.434C82.3691 333.736 37.5632 261.24 0 112.485Z" fill="#0377BC"/>
<path d="M405 112.485C301.546 88.1952 255.423 65.0142 202.5 0V444.434C322.631 333.736 367.437 261.24 405 112.485Z" fill="#FFDC00"/>
<path d="M377 133.862C287.595 114.241 247.736 95.5164 202 43V402C305.817 312.581 344.538 254.022 377 133.862Z" fill="#0377BC"/>
<path d="M27 133.862C116.405 114.241 156.264 95.5164 202 43V402C98.1832 312.581 59.462 254.022 27 133.862Z" fill="#FFDC00"/>
</g>
</svg>
